<?xml version="1.0" encoding="utf-8"?>
<!-- Generator: Adobe Illustrator 26.0.1, SVG Export Plug-In . SVG Version: 6.00 Build 0)  -->
<svg version="1.1" id="Group_23" xmlns="http://www.w3.org/2000/svg" xmlns:xlink="http://www.w3.org/1999/xlink" x="0px" y="0px"
	 viewBox="0 0 209.3 57.9" style="enable-background:new 0 0 209.3 57.9;" xml:space="preserve">
<style type="text/css">
	.st0{fill:#F0FF00;}
	.st1{fill:#FFFFFF;}
	.st2{fill:#00BBDD;}
	.st3{fill:#8DE1FF;}
	.st4{fill:none;stroke:#FFFFFF;stroke-width:2.5;}
</style>
<g id="Group_18" transform="translate(63.348 20.775)">
	<path id="Path_15" class="st0" d="M3.3,3.9C3.2,3.5,3,3,2.7,2.5C2.6,2.2,2.3,1.8,2,1.6C1.8,1.3,1.5,1.1,1.2,1
		C0.8,0.9,0.4,0.8,0,0.7V0.1h1c0.5,0,0.9,0.1,1.4,0.1c0.5,0.1,1,0.2,1.4,0.5c0.5,0.3,1,0.7,1.4,1.2C5.7,2.5,6,3.3,6.3,4l4.1,11.7
		l3.3-9.6L12.9,4c-0.2-0.5-0.4-1-0.6-1.4c-0.2-0.4-0.4-0.7-0.7-1c-0.3-0.2-0.6-0.4-0.9-0.5C10.3,1,9.9,0.9,9.5,0.8V0.2h1
		c0.5,0,0.9,0.1,1.4,0.1c0.5,0.1,1,0.2,1.4,0.5c0.5,0.3,1,0.7,1.4,1.2c0.5,0.6,0.9,1.3,1.1,2.1l4.1,11.7l5.2-15.3h1.3l-7,20.2h-0.6
		L14.2,8L9.9,20.8H9.3L3.3,3.9z"/>
	<path id="Path_16" class="st0" d="M44.5,6.8c-0.2-1.6-1-3.2-2.1-4.4c-1.1-1-2.6-1.5-4.1-1.4c-1,0-1.9,0.1-2.8,0.5
		c-0.9,0.4-1.7,0.9-2.3,1.6c-0.7,0.9-1.3,1.9-1.6,3c-0.4,1.5-0.6,3-0.5,4.6c0,1.1,0.1,2.2,0.4,3.3c0.2,1,0.7,2,1.3,2.9
		c0.6,0.8,1.4,1.5,2.2,2c1,0.6,2.2,0.8,3.3,0.8c1.4,0,2.7-0.3,3.9-1.1c1.2-0.8,2.2-1.9,2.9-3.1l0.6,0.5c-0.4,0.9-1,1.7-1.6,2.4
		c-0.6,0.6-1.2,1.1-1.9,1.6c-0.7,0.4-1.5,0.7-2.2,0.8c-0.9,0.2-1.7,0.3-2.6,0.3c-1.3,0-2.7-0.3-3.9-0.8c-1.1-0.5-2.1-1.3-3-2.2
		c-0.8-1-1.5-2.1-1.9-3.3c-0.4-1.3-0.7-2.7-0.7-4c0-1.5,0.3-2.9,0.7-4.3c0.5-1.3,1.2-2.4,2-3.5c0.8-1,1.8-1.8,3-2.3
		C34.9,0.3,36.2,0,37.5,0c1.5,0,3,0.2,4.4,0.7c1,0.3,1.9,0.9,2.7,1.7c0.4,0.6,0.7,1.3,0.7,2c0.1,0.8,0.1,1.7,0.1,2.6h-0.7L44.5,6.8z
		"/>
	<path id="Path_17" class="st0" d="M55.2,0.4c0.8,0,1.6,0.1,2.7,0.1c0.9,0.1,1.8,0.4,2.7,0.7c0.8,0.3,1.5,0.9,2,1.6
		c0.6,0.8,0.9,1.8,0.8,2.8c0,0.9-0.4,1.8-1,2.5c-0.8,0.9-1.8,1.5-3,1.8c0.8,0.1,1.7,0.3,2.5,0.7c0.6,0.2,1.1,0.6,1.5,1.1
		c0.4,0.4,0.7,0.9,0.8,1.4c0.1,0.6,0.2,1.1,0.2,1.7c0,1-0.2,2-0.7,2.8c-0.5,0.7-1.2,1.3-2,1.7c-0.8,0.4-1.7,0.7-2.7,0.8
		c-1,0.1-1.9,0.2-2.9,0.2h-6.1V4.1c0-0.7-0.1-1.5-0.4-2.2c-0.3-0.5-0.8-0.8-1.8-0.8h-0.6V0.5L55.2,0.4L55.2,0.4z M55.7,9.7
		c0.6,0,1.2-0.1,1.8-0.3C58,9.2,58.6,9,59.1,8.7c0.5-0.3,0.8-0.8,1.1-1.3c0.3-0.5,0.4-1.2,0.4-1.8c0-0.7-0.2-1.3-0.5-1.8
		c-0.3-0.5-0.8-1-1.3-1.3c-0.6-0.3-1.1-0.6-1.8-0.7c-0.6-0.1-1.3-0.2-1.9-0.2c-0.4,0-0.8,0-1.2,0.1c-0.4,0.1-0.7,0.1-1.1,0.2v7.9
		L55.7,9.7z M52.8,10.9v8c0.5,0.1,0.9,0.3,1.4,0.3c0.5,0.1,1,0.1,1.4,0.1c1.5,0.1,3-0.3,4.3-1.1c1.7-1.4,2-4,0.6-5.7
		c-0.2-0.2-0.3-0.4-0.5-0.5c-1.3-0.8-2.8-1.2-4.3-1.1L52.8,10.9L52.8,10.9z"/>
	<path id="Path_18" class="st0" d="M91.2,6.8c-0.2-1.6-1-3.2-2.1-4.4C88,1.5,86.5,1,85,1.1c-1,0-1.9,0.1-2.8,0.5
		c-0.9,0.4-1.7,0.9-2.3,1.6c-0.7,0.9-1.3,1.9-1.6,3c-0.4,1.5-0.6,3-0.5,4.6c0,1.1,0.1,2.2,0.4,3.3c0.2,1,0.7,2,1.3,2.9
		c0.6,0.9,1.3,1.6,2.2,2c1,0.6,2.2,0.8,3.3,0.8c1.4,0,2.7-0.3,3.9-1.1c1.2-0.8,2.2-1.9,2.9-3.1l0.6,0.5c-0.4,0.9-1,1.7-1.6,2.4
		c-0.6,0.6-1.2,1.1-1.9,1.6c-0.7,0.4-1.5,0.7-2.2,0.8c-0.9,0.2-1.7,0.3-2.6,0.3c-1.3,0-2.7-0.3-3.9-0.8c-1.1-0.5-2.1-1.3-3-2.2
		c-0.8-1-1.5-2.1-1.9-3.3c-0.4-1.3-0.7-2.7-0.7-4c0-1.5,0.3-2.9,0.7-4.3c0.5-1.3,1.2-2.4,2-3.5c0.8-1,1.8-1.8,3-2.3
		C81.6,0.3,82.9,0,84.1,0c1.5,0,3,0.2,4.4,0.7c1,0.3,1.9,0.9,2.7,1.7c0.4,0.6,0.7,1.3,0.7,2c0.1,0.9,0.1,1.7,0.1,2.6h-0.7L91.2,6.8z
		"/>
	<path id="Path_19" class="st0" d="M113.6,20.4c-0.4,0.1-0.8,0.1-1.2,0.1c-0.4,0-0.8-0.1-1.2-0.1c-0.5-0.1-1-0.3-1.4-0.5
		c-0.5-0.3-1-0.7-1.4-1.2c-0.5-0.6-0.9-1.4-1.2-2.1l-0.7-2H98l-2.5,5.8h-1.4l8.5-20h0.9l6.7,16.2c0.3,0.5,0.5,1,0.7,1.4
		c0.2,0.3,0.4,0.7,0.7,1c0.2,0.2,0.5,0.4,0.8,0.5c0.3,0.1,0.7,0.2,1.1,0.3L113.6,20.4L113.6,20.4z M98.4,13.5h7.4l-3.6-8.8
		L98.4,13.5z"/>
	<path id="Path_20" class="st0" d="M125.3,0.4c0.4,0,0.9,0.1,1.3,0.2c0.3,0.1,0.6,0.3,0.8,0.5c0.2,0.2,0.3,0.5,0.4,0.7
		c0.1,0.3,0.1,0.6,0.1,0.9v2.3h-0.6c0.1-1-0.3-2-1-2.7c-0.8-0.6-1.8-0.9-2.8-0.8h-4.8v8h6.9v1.2h-6.9v9.5h-2.7V4.1
		c0-0.7-0.1-1.5-0.4-2.2c-0.3-0.5-0.8-0.8-1.8-0.8h-0.6V0.5L125.3,0.4L125.3,0.4z"/>
	<path id="Path_21" class="st0" d="M142.2,0.4c0.4,0,0.9,0.1,1.3,0.2c0.3,0.1,0.6,0.3,0.8,0.5c0.2,0.2,0.3,0.5,0.4,0.7
		c0.1,0.3,0.1,0.6,0.1,0.9v2.3h-0.6c0.1-1-0.3-2-1-2.7c-0.8-0.6-1.8-0.9-2.8-0.8h-5.7v7.9h8.2v1.2h-8.2v8.5h5.3
		c1.1,0,2.3-0.2,3.3-0.7c0.9-0.6,1.6-1.5,1.9-2.6l0.6,0.1l-1.1,2.9c-0.1,0.5-0.4,0.8-0.8,1.1c-0.4,0.3-1,0.4-1.5,0.4H132V4.1
		c0-0.7-0.1-1.5-0.4-2.2c-0.3-0.5-0.8-0.8-1.8-0.8h-0.6V0.5L142.2,0.4L142.2,0.4z"/>
</g>
<g id="Group_22">
	<path id="Intersection_1_2_" class="st1" d="M20.7,40.9c-0.5-0.4-1-0.9-1.5-1.4h22.2c-0.5,0.5-1,0.9-1.5,1.4H20.7z"/>
	<circle id="Ellipse_11_3_" class="st2" cx="28.9" cy="28.9" r="28.9"/>
	<g id="Ellipse_11_2_" transform="translate(1.703 1.703)">
		<circle id="Ellipse_13" class="st2" cx="27.2" cy="27.2" r="26.6"/>
		<g id="Group_19">
			<path id="Path_22" class="st1" d="M27.2,1.4c14.3,0,25.9,11.6,25.9,25.9S41.5,53.1,27.2,53.1S1.4,41.5,1.4,27.2c0,0,0,0,0,0
				C1.4,13,12.9,1.4,27.2,1.4C27.2,1.4,27.2,1.4,27.2,1.4 M27.2,0C12.2,0,0,12.2,0,27.2s12.2,27.2,27.2,27.2
				c15,0,27.2-12.2,27.2-27.2C54.5,12.2,42.3,0,27.2,0z"/>
		</g>
	</g>
	<g id="Ellipse_11_1_" transform="translate(12.261 12.261)">
		<circle id="Ellipse_14" class="st3" cx="16.7" cy="16.7" r="16"/>
		<path id="Path_23" class="st1" d="M16.7,1.4C25.2,1.4,32,8.2,32,16.7S25.2,32,16.7,32S1.4,25.2,1.4,16.7C1.4,8.2,8.2,1.4,16.7,1.4
			 M16.7,0C7.5,0,0,7.5,0,16.7s7.5,16.7,16.7,16.7c9.2,0,16.7-7.5,16.7-16.7C33.4,7.5,25.9,0,16.7,0z"/>
	</g>
	<path id="Path_13_1_" class="st4" d="M37.3,27c0,0,4.7-2.2,5.2,1s-7.7,6-7.7,6"/>
	<path id="Path_11_1_" class="st1" d="M17.7,21.1h20.4c0.8,0,1.4,0.6,1.4,1.4l-4.1,13.6c0,0.8-0.6,1.4-1.4,1.4H21.8
		c-0.8,0-1.4-0.6-1.4-1.4l-4.1-13.6C16.4,21.7,17,21.1,17.7,21.1z"/>
	<path id="Path_14_1_" class="st2" d="M18.5,25.3c-0.1-0.2,3.2,10.9,3.2,10.9h12.2l3.2-11.1c0,0-1.8,2.5-5.9,1.9
		S25.5,20.2,18.5,25.3z"/>
	<path id="Intersection_1_1_" class="st1" d="M19.3,40.9c-0.5-0.4-1-0.9-1.5-1.4h22.2c-0.5,0.5-1,0.9-1.5,1.4H19.3z"/>
	<g id="Group_20" transform="translate(6.403 4.768)">
		<path id="Path_24" class="st1" d="M1.6,12.9c-0.2,0-0.3-0.1-0.5-0.1H0.7c-0.1,0-0.2,0.1-0.3,0.1c-0.1,0.1-0.2,0.1-0.3,0.3L0,13.1
			c0,0,0.1-0.1,0.1-0.1c0,0,0.1-0.1,0.1-0.1c0.1-0.1,0.2-0.2,0.3-0.3c0.1-0.1,0.3-0.2,0.4-0.3c0.2-0.1,0.4-0.1,0.5-0.1
			c0.3,0,0.5,0,0.7,0.1L6,13.4l-1.9-2.7l-0.7-0.2c-0.2,0-0.3-0.1-0.5-0.1H2.5c-0.1,0-0.2,0.1-0.3,0.1c-0.1,0.1-0.2,0.1-0.3,0.3
			l-0.1-0.1c0,0,0.1-0.1,0.1-0.1c0.1-0.1,0.1-0.1,0.1-0.1C2,10.2,2.2,10.2,2.2,10c0.1-0.1,0.3-0.2,0.4-0.3C2.8,9.7,3,9.6,3.2,9.6
			c0.3,0,0.5,0,0.7,0.1L7.8,11l-3-4.4l0.3-0.3l4,5.8v0.2l-4.2-1.4l2.5,3.6l-0.1,0.2L1.6,12.9z"/>
		<path id="Path_25" class="st1" d="M13.4,3.5c-0.3-0.4-0.8-0.7-1.3-0.9c-0.5-0.1-1,0-1.4,0.3c-0.3,0.1-0.5,0.3-0.7,0.6
			C9.9,3.7,9.8,4,9.7,4.3C9.6,4.7,9.6,5,9.7,5.4c0.1,0.5,0.3,0.9,0.6,1.4c0.2,0.3,0.4,0.6,0.7,0.9c0.2,0.2,0.5,0.5,0.8,0.6
			c0.3,0.1,0.6,0.2,1,0.2c0.4,0,0.8-0.1,1.1-0.3c0.4-0.2,0.7-0.6,1-1c0.2-0.4,0.3-0.9,0.3-1.4h0.3c0,0.3,0,0.6-0.1,1
			c0,0.3-0.1,0.5-0.3,0.7c-0.1,0.2-0.3,0.4-0.5,0.6c-0.2,0.2-0.4,0.4-0.7,0.5c-0.4,0.2-0.8,0.4-1.2,0.4c-0.4,0.1-0.8,0-1.2-0.1
			c-0.4-0.1-0.8-0.3-1.1-0.6C10,8,9.7,7.6,9.5,7.2C9.3,6.8,9.1,6.4,9.1,5.9C9,5.5,9,5.1,9.1,4.6c0.1-0.4,0.2-0.8,0.5-1.2
			c0.2-0.3,0.5-0.6,0.9-0.8c0.4-0.3,0.9-0.4,1.4-0.5c0.3-0.1,0.7-0.1,1,0.1c0.2,0.1,0.4,0.2,0.5,0.4c0.1,0.2,0.3,0.5,0.5,0.7
			L13.4,3.5z"/>
		<path id="Path_26" class="st1" d="M17.8,0.1C18.4,0,19,0,19.6,0.1c0.3,0.1,0.5,0.2,0.7,0.4c0.2,0.2,0.4,0.6,0.4,0.9
			c0.1,0.3,0,0.6-0.1,0.9c-0.2,0.3-0.5,0.6-0.9,0.8c0.3,0,0.5,0,0.8,0.1c0.2,0,0.4,0.1,0.5,0.3c0.1,0.1,0.2,0.3,0.3,0.4
			c0.1,0.2,0.1,0.4,0.2,0.5c0.1,0.3,0.1,0.7-0.1,1c-0.1,0.3-0.3,0.5-0.5,0.7c-0.2,0.2-0.5,0.4-0.8,0.4c-0.3,0.1-0.6,0.2-1,0.2
			l-2,0.3l-1-5.2c0-0.2-0.1-0.5-0.3-0.7c-0.1-0.3-0.3-0.3-0.5-0.3h-0.2l-0.1-0.2L17.8,0.1z M18.5,3c0.2-0.1,0.4-0.1,0.5-0.2
			s0.3-0.2,0.5-0.3c0.1-0.1,0.2-0.3,0.3-0.5c0.1-0.2,0.1-0.4,0-0.6c0-0.2-0.1-0.4-0.3-0.5c-0.1-0.2-0.3-0.3-0.5-0.3
			c-0.2-0.1-0.4-0.1-0.6-0.1c-0.2,0-0.4,0-0.6,0.1c-0.1,0-0.3,0.1-0.4,0.1c-0.1,0.1-0.3,0.1-0.3,0.1l0.5,2.5L18.5,3z M17.6,3.5
			l0.5,2.6h0.5c0.2,0,0.3,0,0.5-0.1c0.5,0,0.9-0.3,1.3-0.6c0.3-0.3,0.4-0.7,0.3-1.1c-0.1-0.4-0.3-0.8-0.7-1c-0.5-0.2-1-0.2-1.4-0.1
			L17.6,3.5z"/>
		<path id="Path_27" class="st1" d="M32,3.6c0.1-0.5,0-1.1-0.2-1.6c-0.2-0.4-0.6-0.7-1.1-0.9c-0.3-0.1-0.6-0.1-1-0.1
			c-0.3,0-0.6,0.1-0.9,0.3c-0.3,0.2-0.6,0.4-0.8,0.7c-0.3,0.4-0.5,0.9-0.7,1.4c-0.1,0.3-0.2,0.7-0.2,1.1c0,0.3,0,0.7,0.1,1
			c0.1,0.3,0.3,0.6,0.5,0.9c0.2,0.3,0.6,0.5,1,0.6c0.4,0.2,0.9,0.2,1.3,0.1c0.4-0.1,0.9-0.4,1.2-0.7l0.1,0.2
			c-0.2,0.2-0.5,0.4-0.7,0.5c-0.2,0.1-0.5,0.2-0.7,0.3c-0.2,0.1-0.4,0.1-0.6,0.1c-0.3,0-0.6-0.1-0.8-0.2c-0.4-0.1-0.8-0.4-1.2-0.7
			c-0.3-0.3-0.5-0.6-0.7-1c-0.2-0.4-0.3-0.8-0.3-1.2c0-0.4,0.1-0.9,0.2-1.3c0.1-0.4,0.4-0.9,0.7-1.2c0.3-0.3,0.6-0.6,1-0.9
			c0.4-0.2,0.8-0.3,1.2-0.4c0.4-0.1,0.8,0,1.2,0.1c0.5,0.2,0.9,0.4,1.3,0.7c0.3,0.2,0.5,0.5,0.6,0.8c0.1,0.2,0.1,0.5,0,0.7
			c-0.1,0.3-0.2,0.6-0.3,0.8L32,3.6z"/>
		<path id="Path_28" class="st1" d="M34.2,10.4V9.8h-0.1c-0.2,0.1-0.4,0.1-0.6,0c-0.3-0.1-0.6-0.2-0.8-0.4c-0.1-0.1-0.2-0.2-0.3-0.3
			c-0.1-0.1-0.2-0.3-0.3-0.5C32,8.4,32,8.2,32,8c0-0.2,0.1-0.4,0.3-0.6c0.1-0.2,0.3-0.3,0.5-0.4c0.2-0.1,0.5-0.1,0.7,0
			c0.3,0.1,0.5,0.2,0.7,0.3c0.3,0.2,0.6,0.3,0.8,0.5L35.4,8c0.2-0.2,0.3-0.5,0.4-0.7c0.1-0.2,0.1-0.4,0.1-0.5c0-0.1-0.1-0.3-0.1-0.4
			c-0.1-0.1-0.2-0.2-0.3-0.3c-0.2-0.1-0.4-0.2-0.7-0.3c-0.3,0-0.5,0.1-0.7,0.3l-0.3-0.3c0.1-0.1,0.2-0.3,0.3-0.3
			c0.1-0.1,0.3-0.2,0.4-0.2h0.3c0.1,0,0.2,0.1,0.3,0.1c0.1,0.1,0.2,0.1,0.3,0.2c0.2,0.1,0.3,0.2,0.4,0.3c0.2,0.1,0.4,0.3,0.5,0.5
			c0.1,0.2,0.2,0.3,0.3,0.5c0,0.3,0,0.5-0.1,0.7c-0.1,0.4-0.3,0.7-0.5,1l-1.6,2.2L34.2,10.4z M35.3,8.3L35,8.1
			c-0.3-0.3-0.7-0.4-1.1-0.5c-0.3,0-0.6,0.1-0.7,0.3L33,8.4v0.3c0,0.1,0.1,0.2,0.1,0.3c0.1,0.1,0.1,0.2,0.3,0.3
			c0.2,0.1,0.3,0.2,0.5,0.2c0.2,0,0.4-0.1,0.5-0.1L35.3,8.3z"/>
		<path id="Path_29" class="st1" d="M41.6,9.1C41.5,9,41.4,9,41.3,8.9c-0.1-0.1-0.2-0.1-0.3-0.1c-0.1,0-0.3,0.1-0.4,0.1
			c-0.2,0.1-0.3,0.2-0.5,0.3l-0.3,0.2l0.9,1l-0.3,0.3l-0.9-1l-3.3,2.8l-0.6-0.7L39,9.1l-0.5-0.5l0.3-0.3l0.5,0.5l0.2-0.2
			c0.2-0.2,0.5-0.3,0.7-0.4c0.2-0.1,0.5-0.1,0.7,0c0.2,0,0.4,0.1,0.5,0.3c0.1,0.1,0.3,0.3,0.5,0.4c0.3,0.3,0.4,0.5,0.4,0.7v0.3
			c0,0.1-0.1,0.2-0.1,0.3l-0.4-0.1C42,9.8,41.9,9.4,41.6,9.1z"/>
		<path id="Path_30" class="st1" d="M41.4,16.6L40.1,14c-0.2,0.1-0.4,0.2-0.6,0.4c-0.2,0.1-0.3,0.3-0.4,0.5
			c-0.1,0.2-0.1,0.4-0.1,0.5c0,0.2,0.1,0.4,0.1,0.5c0.1,0.2,0.3,0.5,0.5,0.6c0.3,0.1,0.5,0.2,0.8,0.3l-0.1,0.3
			c-0.4,0-0.8-0.1-1.1-0.3c-0.3-0.2-0.5-0.5-0.7-0.7c-0.1-0.3-0.2-0.6-0.3-0.9c0-0.3,0.1-0.6,0.1-0.8c0.1-0.3,0.3-0.5,0.5-0.7
			c0.2-0.2,0.5-0.4,0.7-0.5c0.3-0.1,0.6-0.3,0.9-0.3c0.3-0.1,0.6-0.1,0.9,0c0.3,0,0.5,0.2,0.7,0.3c0.2,0.2,0.4,0.4,0.5,0.7
			c0.3,0.5,0.4,1,0.2,1.6c-0.2,0.5-0.7,0.9-1.2,1.2L41.4,16.6z M41.3,15.6c0.4-0.2,0.8-0.5,1-0.8c0.2-0.3,0.2-0.6,0.1-0.9
			c-0.1-0.1-0.2-0.2-0.3-0.3c-0.1-0.1-0.3-0.1-0.5-0.1c-0.2,0-0.4,0-0.6,0.1c-0.2,0.1-0.5,0.2-0.7,0.3L41.3,15.6z"/>
	</g>
	<g id="Group_21" transform="translate(10.217 39.03)">
		<path id="Path_31" class="st1" d="M2.9,5.6C2.7,5.7,2.5,5.8,2.3,5.9H1.7c-0.2,0-0.4-0.1-0.5-0.2C1,5.6,0.8,5.4,0.6,5.2
			C0.5,5.1,0.4,4.9,0.3,4.7C0.1,4.5,0.1,4.3,0.1,4.1C0,3.9,0,3.7,0,3.5c0-0.2,0.1-0.3,0.2-0.4l0.7-0.5L1,2.7C0.7,3,0.5,3.4,0.5,3.9
			c0,0.4,0.2,0.8,0.4,1.1c0.1,0.1,0.2,0.2,0.3,0.3c0.1,0.1,0.2,0.1,0.3,0.1h0.3C2,5.4,2,5.3,2.2,5.2c0.2-0.1,0.3-0.3,0.3-0.5
			c0-0.3,0-0.5-0.1-0.8L2.2,2.7c-0.1-0.3-0.1-0.6,0-1c0.1-0.3,0.2-0.5,0.5-0.7C2.9,1,3.1,0.9,3.3,0.8c0.2-0.1,0.4-0.1,0.5,0
			C4,0.8,4.2,0.9,4.4,1c0.2,0.1,0.3,0.3,0.5,0.4C5,1.6,5.1,1.8,5.2,2c0.1,0.2,0.2,0.4,0.2,0.5c0.1,0.2,0.1,0.4,0,0.5
			c0,0.2-0.1,0.3-0.2,0.4L4.5,4L4.4,3.9c0.3-0.3,0.5-0.7,0.5-1.2c0-0.4-0.2-0.7-0.4-1C4.4,1.6,4.3,1.5,4.2,1.5
			C4.1,1.4,4,1.4,3.9,1.4H3.5c-0.1,0-0.2,0.1-0.3,0.1C3.1,1.6,3.1,1.7,3,1.8C2.9,1.8,2.9,1.9,2.9,2v0.3c0,0.2,0,0.3,0.1,0.5L3.2,4
			c0,0.2,0.1,0.4,0.1,0.5V5c0,0.1-0.1,0.2-0.1,0.3C3.1,5.4,2.9,5.4,2.9,5.6z"/>
		<path id="Path_32" class="st1" d="M3.9,8.3L3.3,7.8l1.8-2.2c0.1-0.2,0.3-0.3,0.3-0.5s0-0.3-0.2-0.5L5.2,4.6l0.1-0.1l0.5,0.5
			C6,5,6.1,5.1,6.1,5.2v0.2c0,0.1-0.1,0.2-0.1,0.3C5.9,5.9,5.8,6,5.7,6.1L3.9,8.3z M6.9,4.7C6.8,4.8,6.7,4.8,6.6,4.8
			c-0.1,0-0.2,0-0.3-0.1c-0.2-0.2-0.2-0.5,0-0.7C6.4,4,6.5,4,6.6,4c0.1,0,0.2,0,0.3,0.1C7,4.1,7,4.2,7,4.4C7,4.5,7,4.6,6.9,4.7
			L6.9,4.7z"/>
		<path id="Path_33" class="st1" d="M7.2,7.2c0.1-0.2,0.2-0.3,0.2-0.5c0-0.2-0.1-0.3-0.3-0.4L6.9,6.2L7,6.1l0.6,0.3
			C7.8,6.5,7.9,6.6,8,6.7C8,6.8,8.1,7,8,7.1h0.1C8.3,7,8.4,7,8.6,7C8.8,7,9,7.1,9.2,7.2c0.1,0.1,0.3,0.2,0.4,0.3
			c0.1,0.1,0.2,0.3,0.3,0.4C9.9,8.1,10,8.3,9.9,8.4c0,0.2-0.1,0.5-0.3,0.7l-1.2,2.1l-0.6-0.3l1.2-2.1c0.1-0.2,0.1-0.3,0.2-0.5V7.9
			c0-0.1-0.1-0.2-0.1-0.3C9,7.5,9,7.5,8.8,7.4C8.7,7.3,8.6,7.3,8.4,7.3C8.3,7.3,8.1,7.4,8,7.4l-1.6,2.7L5.8,9.7L7.2,7.2z"/>
		<path id="Path_34" class="st1" d="M13.4,8.9C13.6,8.9,13.8,9,14,9.1c0.2,0.1,0.3,0.2,0.3,0.3c0,0.1,0.1,0.1,0.1,0.2v0.2
			c0,0.1,0,0.2-0.1,0.3c0,0.1-0.1,0.2-0.1,0.4l-0.1-0.1c0.1-0.3,0.1-0.6-0.1-0.8c-0.2-0.2-0.4-0.4-0.6-0.5c-0.2-0.1-0.4-0.1-0.5,0
			c-0.1,0.1-0.3,0.1-0.5,0.2c-0.2,0.1-0.3,0.3-0.3,0.5c-0.1,0.2-0.2,0.4-0.3,0.6c-0.1,0.2-0.1,0.4-0.1,0.7c0,0.2,0,0.4,0.1,0.5
			c0.1,0.4,0.4,0.7,0.7,0.7c0.2,0.1,0.5,0.1,0.7,0.1c0.2-0.1,0.4-0.2,0.6-0.3l0.1,0.1c-0.3,0.2-0.6,0.3-0.9,0.4
			c-0.3,0.1-0.6,0.1-0.9-0.1c-0.3-0.1-0.5-0.2-0.7-0.4c-0.2-0.1-0.3-0.3-0.4-0.5c-0.1-0.2-0.1-0.4-0.1-0.7c0-0.3,0.1-0.5,0.1-0.7
			c0.1-0.3,0.2-0.5,0.3-0.7c0.1-0.2,0.3-0.4,0.5-0.5c0.2-0.1,0.4-0.2,0.7-0.3C12.8,8.8,13,8.8,13.4,8.9z"/>
		<path id="Path_35" class="st1" d="M18.8,11.8l-2.5-0.1v0.6c0,0.2,0.1,0.4,0.2,0.5c0.1,0.1,0.2,0.3,0.3,0.3
			c0.1,0.1,0.3,0.1,0.5,0.1c0.2,0,0.5,0,0.7-0.1c0.2-0.1,0.3-0.3,0.5-0.5l0.1,0.1c-0.2,0.3-0.4,0.5-0.7,0.6
			c-0.3,0.1-0.5,0.2-0.8,0.1c-0.3,0-0.5-0.1-0.7-0.2c-0.2-0.1-0.4-0.3-0.5-0.5c-0.1-0.2-0.2-0.4-0.3-0.7c-0.1-0.3-0.1-0.5-0.1-0.8
			c0-0.3,0.1-0.5,0.1-0.7c0.1-0.2,0.2-0.4,0.3-0.6c0.2-0.2,0.4-0.3,0.5-0.4c0.2-0.1,0.4-0.1,0.7-0.1c0.8,0,1.5,0.6,1.6,1.4
			c0,0.2,0,0.3-0.1,0.5L18.8,11.8z M18.1,11.4c0-0.4,0-0.7-0.1-1.1c-0.1-0.2-0.3-0.4-0.6-0.4c-0.1,0-0.2,0-0.3,0.1
			c-0.1,0.1-0.2,0.2-0.3,0.3c-0.1,0.2-0.1,0.3-0.2,0.5c-0.1,0.2-0.1,0.3-0.1,0.6L18.1,11.4z"/>
		<path id="Path_36" class="st1" d="M25.7,12.2c0.3,0,0.5-0.2,0.7-0.4c0.1-0.2,0.2-0.5,0.1-0.7l0.1-0.1l0.1,0.5
			c0,0.1,0.1,0.1,0.1,0.3s0,0.1-0.1,0.2s-0.1,0.1-0.1,0.2c-0.1,0.1-0.2,0.1-0.3,0.1l-2.8,0.8l-0.1-0.5c0.2-0.5,0.5-0.9,0.8-1.4
			c0.2-0.3,0.4-0.7,0.5-1.1c0.1-0.3,0.2-0.6,0.3-0.9c0-0.3,0-0.6-0.1-0.9c-0.1-0.2-0.1-0.3-0.2-0.5c-0.1-0.1-0.2-0.2-0.3-0.3
			c-0.1-0.1-0.3-0.1-0.4-0.1c-0.1,0-0.3,0-0.4,0.1C23.3,7.8,23,8,22.8,8.2c-0.2,0.4-0.3,0.8-0.2,1.2h-0.1c-0.1-0.2-0.1-0.4-0.1-0.5
			c0-0.2,0-0.3,0.1-0.5c0.1-0.2,0.3-0.4,0.5-0.6c0.2-0.2,0.5-0.3,0.8-0.4c0.4-0.1,0.7-0.1,1.1,0c0.2,0.1,0.4,0.2,0.5,0.3
			c0.2,0.2,0.3,0.5,0.3,0.7c0.1,0.3,0.1,0.7,0,1c-0.1,0.4-0.2,0.7-0.4,1c-0.2,0.3-0.4,0.7-0.7,1.1c-0.3,0.4-0.5,0.8-0.7,1.2
			L25.7,12.2z"/>
		<path id="Path_37" class="st1" d="M27.8,5.6c0.3-0.2,0.6-0.3,0.9-0.3c0.3,0,0.6,0.1,0.8,0.2c0.3,0.2,0.5,0.4,0.7,0.6
			c0.2,0.3,0.5,0.6,0.7,1c0.2,0.3,0.4,0.7,0.5,1.1c0.1,0.3,0.2,0.6,0.1,1c0,0.3-0.1,0.6-0.2,0.8c-0.1,0.3-0.4,0.5-0.7,0.6
			c-0.3,0.1-0.6,0.2-0.9,0.3c-0.3,0-0.6-0.1-0.8-0.2c-0.3-0.2-0.5-0.4-0.7-0.6c-0.2-0.3-0.5-0.6-0.7-1c-0.2-0.3-0.4-0.7-0.5-1.1
			c-0.1-0.3-0.2-0.6-0.1-1c0-0.3,0.1-0.6,0.2-0.8C27.3,5.9,27.5,5.7,27.8,5.6z M28,5.9c-0.2,0.1-0.3,0.2-0.4,0.4
			c-0.1,0.2-0.1,0.4-0.1,0.6c0,0.3,0.1,0.5,0.2,0.7c0.2,0.4,0.3,0.7,0.5,1c0.2,0.3,0.4,0.7,0.6,1c0.1,0.2,0.3,0.4,0.6,0.6
			c0.2,0.1,0.3,0.2,0.5,0.2c0.2,0,0.4,0,0.5-0.1c0.2-0.1,0.3-0.2,0.4-0.4C31,9.7,31,9.5,31,9.3c0-0.3-0.1-0.5-0.2-0.7
			c-0.2-0.4-0.3-0.7-0.5-1c-0.2-0.3-0.4-0.7-0.6-1c-0.1-0.2-0.3-0.4-0.5-0.6c-0.2-0.1-0.3-0.2-0.5-0.2C28.4,5.7,28.1,5.7,28,5.9
			L28,5.9z"/>
		<path id="Path_38" class="st1" d="M34.8,7.2l-0.5,0.5l-3.1-3.4l-0.2,1l-0.2-0.1L31,3.5l0.3-0.3L34.8,7.2z"/>
		<path id="Path_39" class="st1" d="M33.2,0.7c0.2-0.2,0.4-0.4,0.7-0.6C34.1,0,34.4,0,34.7,0c0.3,0,0.7,0.1,1,0.3
			c0.4,0.2,0.7,0.4,1,0.6c0.3,0.3,0.6,0.5,0.9,0.8c0.2,0.3,0.4,0.5,0.5,0.8c0.1,0.3,0.1,0.5,0.1,0.8c-0.1,0.3-0.2,0.6-0.4,0.8
			c-0.2,0.2-0.4,0.4-0.7,0.6c-0.3,0.1-0.5,0.2-0.8,0.1c-0.3,0-0.7-0.1-1-0.3c-0.4-0.2-0.7-0.4-1-0.6c-0.3-0.3-0.6-0.5-0.9-0.8
			C33.1,3,33,2.7,32.8,2.4c-0.1-0.3-0.1-0.5-0.1-0.8C32.9,1.3,33,1,33.2,0.7z M33.4,0.9c-0.1,0.2-0.2,0.3-0.2,0.5
			c0,0.2,0.1,0.4,0.1,0.5c0.1,0.2,0.3,0.4,0.5,0.6c0.2,0.2,0.5,0.5,0.9,0.7c0.3,0.2,0.6,0.4,1,0.6c0.2,0.1,0.5,0.2,0.7,0.3
			c0.2,0.1,0.4,0.1,0.6,0c0.2-0.1,0.3-0.2,0.5-0.3c0.1-0.2,0.2-0.3,0.2-0.5c0-0.2-0.1-0.4-0.1-0.5c-0.1-0.2-0.3-0.4-0.5-0.6
			c-0.2-0.2-0.5-0.5-0.9-0.7c-0.3-0.2-0.6-0.4-1-0.6c-0.2-0.1-0.5-0.2-0.7-0.3c-0.2-0.1-0.4-0.1-0.6,0C33.7,0.7,33.6,0.8,33.4,0.9
			L33.4,0.9z"/>
	</g>
</g>
<circle id="Ellipse_9_2_" class="st3" cx="7.6" cy="28.9" r="2"/>
<circle id="Ellipse_9_1_" class="st3" cx="50.3" cy="28.9" r="2"/>
</svg>
